<!DOCTYPE svg PUBLIC "-//W3C//DTD SVG 1.1//EN" "http://www.w3.org/Graphics/SVG/1.1/DTD/svg11.dtd">
<!-- Uploaded to: SVG Repo, www.svgrepo.com, Transformed by: SVG Repo Mixer Tools -->
<svg fill="#ffffff" version="1.1" id="Layer_1" xmlns="http://www.w3.org/2000/svg" xmlns:xlink="http://www.w3.org/1999/xlink" viewBox="-127 184.2 256 145.8" xml:space="preserve" width="800px" height="800px">
<g id="SVGRepo_bgCarrier" stroke-width="0"/>
<g id="SVGRepo_tracerCarrier" stroke-linecap="round" stroke-linejoin="round"/>
<g id="SVGRepo_iconCarrier"> <g> <path d="M-88.5,218.1H-127v77.6h63.5V184.2h-25V218.1z M-88.5,274.9h-13v-35.3h13V274.9z"/> <path d="M-11.4,296.1L-11.4,296.1h38.6v12.1h-39V330h52.9h11.1V218.4h-63.6V296.1z M14.2,239.3h13.1v35.3H14.2V239.3z"/> <path d="M65.5,218.4V296H104v12.2H65V330h53h11V218.4H65.5z M104,274.6H91v-35.3h13V274.6z"/> <rect x="-50.6" y="218" width="25.9" height="78.1"/> <rect x="-50.6" y="185.6" width="25.9" height="21.2"/> </g> </g>
</svg>